<svg width="28" height="32" viewBox="0 0 28 32" fill="none" xmlns="http://www.w3.org/2000/svg">
<path d="M17.804 9.73415L1.02048 0.0889981C0.809582 -0.0341314 0.544257 -0.0272909 0.34016 0.0958387C0.129261 0.218968 0 0.437865 0 0.684124C0 0.684124 0.00680321 1.57339 0.0136064 3.03727L12.239 15.3297L17.804 9.73415Z" fill="#12B76A"/>
<path d="M0.0135498 3.03735C0.0339594 8.31825 0.0951882 21.1374 0.122401 27.5196L12.2457 15.3298L0.0135498 3.03735Z" fill="#2E90FA"/>
<path d="M27.4102 15.2544L17.804 9.73413L12.2322 15.3297L18.5184 21.6503L27.417 16.4379C27.6279 16.3147 27.7571 16.089 27.7571 15.8496C27.7571 15.6033 27.6211 15.3776 27.4102 15.2544Z" fill="url(#paint0_linear_257_455)"/>
<path d="M0.115662 27.5194C0.129268 29.7973 0.136071 31.2543 0.136071 31.2543C0.136071 31.5006 0.265332 31.7263 0.476231 31.8426C0.68713 31.9658 0.945652 31.9658 1.15655 31.8426L18.5251 21.6571L12.239 15.3364L0.115662 27.5194Z" fill="#F04438"/>
<defs>
<linearGradient id="paint0_linear_257_455" x1="12.2387" y1="15.6966" x2="27.7555" y2="15.6966" gradientUnits="userSpaceOnUse">
<stop stop-color="#FAA51A"/>
<stop offset="0.387" stop-color="#FAB716"/>
<stop offset="0.741" stop-color="#FAC412"/>
<stop offset="1" stop-color="#FAC80F"/>
</linearGradient>
</defs>
</svg>
