<svg width="0" height="0" class="hidden">
  <symbol fill="none" xmlns="http://www.w3.org/2000/svg" viewBox="0 0 18 18" id="youtube">
    <path d="M9 3C9.03603 3 14.6389 3.0015 16.043 3.38574C16.8137 3.59342 17.4213 4.20087 17.6289 4.97168C18.0145 6.38012 18 9.31641 18 9.31641C18 9.33769 17.9982 12.2421 17.6289 13.6455C17.4213 14.4164 16.814 15.0249 16.043 15.2324C14.6365 15.6027 9.01668 15.6025 9 15.6025C9 15.6025 3.3803 15.6033 1.95703 15.2178C1.186 15.0101 0.578752 14.4018 0.371094 13.6309C0.00261305 12.2453 1.26186e-05 9.33576 0 9.30176C0 9.30176 0.000444037 6.38012 0.371094 4.97168C0.578707 4.20096 1.2011 3.57859 1.95703 3.37109C3.36561 3.00031 9 3 9 3ZM7.20605 12L11.8916 9.30176L7.20605 6.60352V12Z" fill="#FCFCFD"></path>
  </symbol>
  <symbol fill="none" xmlns="http://www.w3.org/2000/svg" viewBox="0 0 18 18" id="facebook">
    <path d="M11.3575 2.98875H13.0008V0.12675C12.7172 0.08775 11.7423 0 10.6068 0C8.2375 0 6.6145 1.49025 6.6145 4.22925V6.75H4V9.9495H6.6145V18H9.82V9.95025H12.3288L12.727 6.75075H9.81925V4.5465C9.82 3.62175 10.069 2.98875 11.3575 2.98875Z" fill="#FCFCFD"></path>
  </symbol>
  <symbol fill="none" xmlns="http://www.w3.org/2000/svg" viewBox="0 0 18 18" id="instagram">
    <path d="M17.9507 5.29205C17.9086 4.33564 17.7539 3.67812 17.5324 3.10836C17.3038 2.50359 16.9522 1.96213 16.4915 1.51201C16.0414 1.05489 15.4963 0.699691 14.8986 0.474702C14.3255 0.253147 13.6714 0.0984842 12.715 0.0563159C11.7515 0.0105764 11.4456 0 9.00174 0C6.55791 0 6.25202 0.0105764 5.29204 0.0527447C4.33563 0.0949129 3.67811 0.249713 3.1085 0.471131C2.50358 0.699691 1.96213 1.05132 1.51201 1.51201C1.05489 1.96213 0.699827 2.50716 0.474701 3.10493C0.253147 3.67812 0.098484 4.33207 0.0563158 5.28848C0.0105764 6.25203 0 6.55792 0 9.00176C0 11.4456 0.0105764 11.7515 0.0527446 12.7115C0.0949128 13.6679 0.249713 14.3254 0.471267 14.8952C0.699827 15.4999 1.05489 16.0414 1.51201 16.4915C1.96213 16.9486 2.50715 17.3038 3.10493 17.5288C3.67811 17.7504 4.33206 17.905 5.28861 17.9472C6.24845 17.9895 6.55448 17.9999 8.99831 17.9999C11.4421 17.9999 11.748 17.9895 12.708 17.9472C13.6644 17.905 14.3219 17.7504 14.8916 17.5288C16.1012 17.0611 17.0577 16.1047 17.5254 14.8952C17.7468 14.322 17.9016 13.6679 17.9437 12.7115C17.9859 11.7515 17.9965 11.4456 17.9965 9.00176C17.9965 6.55792 17.9929 6.25203 17.9507 5.29205ZM16.3298 12.6411C16.2911 13.5202 16.1434 13.9949 16.0203 14.3114C15.7179 15.0956 15.0955 15.7179 14.3114 16.0204C13.9949 16.1434 13.5168 16.2911 12.6411 16.3297C11.6917 16.372 11.407 16.3824 9.00531 16.3824C6.60365 16.3824 6.31534 16.372 5.36937 16.3297C4.4903 16.2911 4.01559 16.1434 3.69913 16.0204C3.3089 15.8761 2.9537 15.6476 2.66539 15.3487C2.3665 15.0568 2.13794 14.7052 1.99372 14.315C1.87065 13.9985 1.72299 13.5202 1.68439 12.6447C1.64209 11.6953 1.63165 11.4104 1.63165 9.00876C1.63165 6.60709 1.64209 6.31878 1.68439 5.37295C1.72299 4.49387 1.87065 4.01917 1.99372 3.7027C2.13794 3.31234 2.3665 2.95727 2.66896 2.66883C2.9607 2.36994 3.31233 2.14138 3.7027 1.99729C4.01917 1.87422 4.49744 1.72656 5.37294 1.68783C6.32235 1.64566 6.60722 1.63508 9.00875 1.63508C11.414 1.63508 11.6987 1.64566 12.6447 1.68783C13.5238 1.72656 13.9985 1.87422 14.3149 1.99729C14.7052 2.14138 15.0604 2.36994 15.3487 2.66883C15.6476 2.96071 15.8761 3.31234 16.0203 3.7027C16.1434 4.01917 16.2911 4.49731 16.3298 5.37295C16.372 6.32236 16.3826 6.60709 16.3826 9.00876C16.3826 11.4104 16.372 11.6917 16.3298 12.6411Z" fill="#FCFCFD"></path>
    <path d="M9.00188 4.37744C6.44912 4.37744 4.37793 6.44849 4.37793 9.00139C4.37793 11.5543 6.44912 13.6253 9.00188 13.6253C11.5548 13.6253 13.6258 11.5543 13.6258 9.00139C13.6258 6.44849 11.5548 4.37744 9.00188 4.37744ZM9.00188 12.0008C7.34578 12.0008 6.00244 10.6576 6.00244 9.00139C6.00244 7.34515 7.34578 6.00195 9.00188 6.00195C10.6581 6.00195 12.0013 7.34515 12.0013 9.00139C12.0013 10.6576 10.6581 12.0008 9.00188 12.0008Z" fill="#FCFCFD"></path>
    <path d="M14.8876 4.19521C14.8876 4.79133 14.4043 5.27469 13.808 5.27469C13.2119 5.27469 12.7285 4.79133 12.7285 4.19521C12.7285 3.59894 13.2119 3.11572 13.808 3.11572C14.4043 3.11572 14.8876 3.59894 14.8876 4.19521Z" fill="#FCFCFD"></path>
  </symbol>
  <symbol fill="none" xmlns="http://www.w3.org/2000/svg" viewBox="0 0 18 18" id="linkedin">
    <path d="M17.9955 18.0002V17.9994H18V11.3979C18 8.16841 17.3047 5.68066 13.5292 5.68066C11.7142 5.68066 10.4962 6.67666 9.99896 7.62091H9.94646V5.98216H6.3667V17.9994H10.0942V12.0489C10.0942 10.4822 10.3912 8.96716 12.3315 8.96716C14.2432 8.96716 14.2717 10.7552 14.2717 12.1494V18.0002H17.9955Z" fill="#FCFCFD"></path>
    <path d="M0.296997 5.98291H4.029V18.0002H0.296997V5.98291Z" fill="#FCFCFD"></path>
    <path d="M2.1615 0C0.96825 0 0 0.96825 0 2.1615C0 3.35475 0.96825 4.34325 2.1615 4.34325C3.35475 4.34325 4.323 3.35475 4.323 2.1615C4.32225 0.96825 3.354 0 2.1615 0V0Z" fill="#FCFCFD"></path>
  </symbol>
  <symbol fill="none" xmlns="http://www.w3.org/2000/svg" viewBox="0 0 18 18" id="twitter">
    <g clip-path="url(#clip0_257_489)">
      <path d="M18 3.73137C17.3306 4.025 16.6174 4.21962 15.8737 4.31412C16.6388 3.85737 17.2226 3.13962 17.4971 2.2745C16.7839 2.69975 15.9964 3.00013 15.1571 3.16775C14.4799 2.44663 13.5146 2 12.4616 2C10.4186 2 8.77387 3.65825 8.77387 5.69113C8.77387 5.98363 8.79862 6.26487 8.85938 6.53262C5.7915 6.383 3.07687 4.91263 1.25325 2.67275C0.934875 3.22513 0.748125 3.85738 0.748125 4.538C0.748125 5.816 1.40625 6.94887 2.38725 7.60475C1.79437 7.5935 1.21275 7.42138 0.72 7.15025C0.72 7.1615 0.72 7.17613 0.72 7.19075C0.72 8.984 1.99912 10.4735 3.6765 10.8166C3.37612 10.8988 3.04875 10.9381 2.709 10.9381C2.47275 10.9381 2.23425 10.9246 2.01038 10.8751C2.4885 12.3365 3.84525 13.4109 5.4585 13.4457C4.203 14.4279 2.60888 15.0196 0.883125 15.0196C0.5805 15.0196 0.29025 15.0061 0 14.969C1.63462 16.0231 3.57188 16.625 5.661 16.625C12.4515 16.625 16.164 11 16.164 6.12425C16.164 5.96112 16.1584 5.80363 16.1505 5.64725C16.8829 5.1275 17.4982 4.47837 18 3.73137Z" fill="#FCFCFD"></path>
    </g>
    <defs>
      <clipPath id="clip0_257_489">
        <rect width="18" height="18" fill="white"></rect>
      </clipPath>
    </defs>
  </symbol>
  <symbol fill="none" xmlns="http://www.w3.org/2000/svg" viewBox="0 0 32 32" id="apple">
    <g clip-path="url(#clip0_257_517)">
      <path d="M21.9986 0C20.2926 0.117999 18.2986 1.20999 17.1366 2.63198C16.0766 3.92198 15.2046 5.83797 15.5446 7.69995C17.4086 7.75795 19.3346 6.63996 20.4506 5.19397C21.4946 3.84798 22.2846 1.94399 21.9986 0Z" fill="#FCFCFD"></path>
      <path d="M28.7406 10.736C27.1026 8.68198 24.8006 7.48999 22.6266 7.48999C19.7566 7.48999 18.5427 8.86398 16.5487 8.86398C14.4927 8.86398 12.9307 7.49399 10.4487 7.49399C8.01071 7.49399 5.41473 8.98398 3.76874 11.532C1.45475 15.1199 1.85075 21.8659 5.60073 27.6119C6.94272 29.6679 8.73471 31.9799 11.0787 31.9999C13.1647 32.0199 13.7527 30.6619 16.5787 30.6479C19.4046 30.6319 19.9406 32.0179 22.0226 31.9959C24.3686 31.9779 26.2586 29.4159 27.6006 27.3599C28.5626 25.8859 28.9206 25.1439 29.6666 23.4799C24.2406 21.4139 23.3706 13.698 28.7406 10.736Z" fill="#FCFCFD"></path>
    </g>
    <defs>
      <clipPath id="clip0_257_517">
        <rect width="32" height="32" fill="white"></rect>
      </clipPath>
    </defs>
  </symbol>
  <symbol fill="none" xmlns="http://www.w3.org/2000/svg" viewBox="0 0 32 32" id="play-circle">
    <path opacity="0.2" d="M16 4C13.6266 4 11.3066 4.70379 9.33316 6.02236C7.35977 7.34094 5.8217 9.21509 4.91345 11.4078C4.0052 13.6005 3.76756 16.0133 4.23058 18.3411C4.6936 20.6689 5.83649 22.8071 7.51472 24.4853C9.19295 26.1635 11.3312 27.3064 13.6589 27.7694C15.9867 28.2324 18.3995 27.9948 20.5922 27.0866C22.7849 26.1783 24.6591 24.6402 25.9776 22.6668C27.2962 20.6935 28 18.3734 28 16C28 14.4241 27.6896 12.8637 27.0866 11.4078C26.4835 9.95189 25.5996 8.62901 24.4853 7.51471C23.371 6.40041 22.0481 5.51649 20.5922 4.91344C19.1363 4.31038 17.5759 4 16 4ZM14 20V12L20 16L14 20Z" fill="#FB6514"></path>
    <path d="M16 28C22.6274 28 28 22.6274 28 16C28 9.37258 22.6274 4 16 4C9.37258 4 4 9.37258 4 16C4 22.6274 9.37258 28 16 28Z" stroke="#FB6514" stroke-width="2" stroke-miterlimit="10"></path>
    <path d="M20 16L14 12V20L20 16Z" stroke="#FB6514" stroke-width="2" stroke-linecap="round" stroke-linejoin="round"></path>
  </symbol>
  <symbol fill="none" xmlns="http://www.w3.org/2000/svg" viewBox="0 0 32 32" id="check-square">
    <path opacity="0.2" d="M5.5 5.5V24.5L7.5 26.5H26.5V5.5H5.5Z" fill="#2E90FA"></path>
    <path d="M5.49988 17.9091V6.5C5.49988 6.23478 5.60523 5.98043 5.79277 5.79289C5.98031 5.60536 6.23466 5.5 6.49988 5.5H25.4999C25.7651 5.5 26.0194 5.60536 26.207 5.79289C26.3945 5.98043 26.4999 6.23478 26.4999 6.5V25.5C26.4999 25.7652 26.3945 26.0196 26.207 26.2071C26.0194 26.3946 25.7651 26.5 25.4999 26.5H16.9544" stroke="#2E90FA" stroke-width="2" stroke-linecap="round" stroke-linejoin="round"></path>
    <path d="M16 19L8 27L4 23" stroke="#2E90FA" stroke-width="2" stroke-linecap="round" stroke-linejoin="round"></path>
  </symbol>
  <symbol fill="none" xmlns="http://www.w3.org/2000/svg" viewBox="0 0 32 32" id="trophy">
    <path opacity="0.2" d="M7 7V13.887C7 18.8496 10.9693 22.963 15.9318 22.9997C17.1194 23.0088 18.297 22.7826 19.3968 22.3344C20.4966 21.8861 21.4968 21.2246 22.3398 20.388C23.1828 19.5514 23.8518 18.5563 24.3084 17.4599C24.7649 16.3635 25 15.1876 25 14V7C25 6.73478 24.8946 6.48043 24.7071 6.29289C24.5196 6.10536 24.2652 6 24 6H8C7.73478 6 7.48043 6.10536 7.29289 6.29289C7.10536 6.48043 7 6.73478 7 7Z" fill="#12B76A"></path>
    <path d="M7 7V13.887C7 18.8496 10.9693 22.963 15.9318 22.9997C17.1194 23.0088 18.297 22.7826 19.3968 22.3344C20.4966 21.8861 21.4968 21.2246 22.3398 20.388C23.1828 19.5514 23.8518 18.5563 24.3084 17.4599C24.7649 16.3635 25 15.1876 25 14V7C25 6.73478 24.8946 6.48043 24.7071 6.29289C24.5196 6.10536 24.2652 6 24 6H8C7.73478 6 7.48043 6.10536 7.29289 6.29289C7.10536 6.48043 7 6.73478 7 7Z" stroke="#12B76A" stroke-width="2" stroke-linecap="round" stroke-linejoin="round"></path>
    <path d="M12 28H20" stroke="#12B76A" stroke-width="2" stroke-linecap="round" stroke-linejoin="round"></path>
    <path d="M16 23V28" stroke="#12B76A" stroke-width="2" stroke-linecap="round" stroke-linejoin="round"></path>
    <path d="M24.777 16H26C27.0609 16 28.0783 15.5786 28.8285 14.8284C29.5786 14.0783 30 13.0609 30 12V10C30 9.73478 29.8947 9.48043 29.7071 9.29289C29.5196 9.10536 29.2652 9 29 9H25" stroke="#12B76A" stroke-width="2" stroke-linecap="round" stroke-linejoin="round"></path>
    <path d="M7.24558 16H5.98419C4.92333 16 3.90591 15.5786 3.15576 14.8284C2.40562 14.0783 1.98419 13.0609 1.98419 12V10C1.98419 9.73478 2.08955 9.48043 2.27709 9.29289C2.46462 9.10536 2.71898 9 2.98419 9H6.98419" stroke="#12B76A" stroke-width="2" stroke-linecap="round" stroke-linejoin="round"></path>
  </symbol>
</svg>